<svg id="visual" viewBox="0 0 900 600" width="900" height="600" xmlns="http://www.w3.org/2000/svg" xmlns:xlink="http://www.w3.org/1999/xlink" version="1.1"><rect x="0" y="0" width="900" height="600" fill="#140021"></rect><path d="M459 0L410 0L410 86L375 86L375 171L414 171L414 257L522 257L522 343L433 343L433 429L477 429L477 514L451 514L451 600L0 600L0 514L0 514L0 429L0 429L0 343L0 343L0 257L0 257L0 171L0 171L0 86L0 86L0 0L0 0Z" fill="#9900ff"></path><path d="M283 0L312 0L312 86L279 86L279 171L358 171L358 257L247 257L247 343L294 343L294 429L348 429L348 514L324 514L324 600L0 600L0 514L0 514L0 429L0 429L0 343L0 343L0 257L0 257L0 171L0 171L0 86L0 86L0 0L0 0Z" fill="#7700c6"></path><path d="M186 0L156 0L156 86L179 86L179 171L234 171L234 257L122 257L122 343L229 343L229 429L167 429L167 514L234 514L234 600L0 600L0 514L0 514L0 429L0 429L0 343L0 343L0 257L0 257L0 171L0 171L0 86L0 86L0 0L0 0Z" fill="#560090"></path></svg>