<svg id="visual" viewBox="0 0 900 600" width="900" height="600" xmlns="http://www.w3.org/2000/svg" xmlns:xlink="http://www.w3.org/1999/xlink" version="1.1"><g stroke-width="1" stroke-linejoin="bevel"><path d="M435 278L521 230L365 232Z" fill="#00101c" stroke="#00101c"></path><path d="M521 230L425 78L365 232Z" fill="#00101c" stroke="#00101c"></path><path d="M521 230L486 74L425 78Z" fill="#051b29" stroke="#051b29"></path><path d="M565 189L486 74L521 230Z" fill="#02131f" stroke="#02131f"></path><path d="M435 278L529 291L521 230Z" fill="#041622" stroke="#041622"></path><path d="M521 230L594 306L565 189Z" fill="#042233" stroke="#042233"></path><path d="M425 78L296 179L365 232Z" fill="#051d2c" stroke="#051d2c"></path><path d="M425 78L284 124L296 179Z" fill="#051d2c" stroke="#051d2c"></path><path d="M527 401L594 306L529 291Z" fill="#042536" stroke="#042536"></path><path d="M529 291L594 306L521 230Z" fill="#051825" stroke="#051825"></path><path d="M561 0L468 0L486 74Z" fill="#051d2c" stroke="#051d2c"></path><path d="M486 74L468 0L425 78Z" fill="#051d2c" stroke="#051d2c"></path><path d="M425 78L311 0L284 124Z" fill="#03273a" stroke="#03273a"></path><path d="M468 0L411 0L425 78Z" fill="#03273a" stroke="#03273a"></path><path d="M296 179L268 279L365 232Z" fill="#05202f" stroke="#05202f"></path><path d="M365 232L392 414L435 278Z" fill="#03273a" stroke="#03273a"></path><path d="M435 278L527 401L529 291Z" fill="#02131f" stroke="#02131f"></path><path d="M191 186L268 279L296 179Z" fill="#042536" stroke="#042536"></path><path d="M686 118L627 74L565 189Z" fill="#03273a" stroke="#03273a"></path><path d="M565 189L627 74L486 74Z" fill="#041622" stroke="#041622"></path><path d="M627 74L561 0L486 74Z" fill="#051d2c" stroke="#051d2c"></path><path d="M392 414L527 401L435 278Z" fill="#051d2c" stroke="#051d2c"></path><path d="M268 279L392 414L365 232Z" fill="#02131f" stroke="#02131f"></path><path d="M411 0L311 0L425 78Z" fill="#051825" stroke="#051825"></path><path d="M160 83L191 186L284 124Z" fill="#042233" stroke="#042233"></path><path d="M284 124L191 186L296 179Z" fill="#00101c" stroke="#00101c"></path><path d="M721 191L686 118L565 189Z" fill="#02131f" stroke="#02131f"></path><path d="M627 74L710 0L561 0Z" fill="#00101c" stroke="#00101c"></path><path d="M191 186L224 334L268 279Z" fill="#042233" stroke="#042233"></path><path d="M268 279L287 428L392 414Z" fill="#051d2c" stroke="#051d2c"></path><path d="M725 381L699 280L594 306Z" fill="#051b29" stroke="#051b29"></path><path d="M594 306L699 280L565 189Z" fill="#042233" stroke="#042233"></path><path d="M699 280L721 191L565 189Z" fill="#051b29" stroke="#051b29"></path><path d="M527 401L618 412L594 306Z" fill="#041622" stroke="#041622"></path><path d="M579 503L618 412L527 401Z" fill="#05202f" stroke="#05202f"></path><path d="M224 334L287 428L268 279Z" fill="#042536" stroke="#042536"></path><path d="M392 414L468 482L527 401Z" fill="#05202f" stroke="#05202f"></path><path d="M368 534L468 482L392 414Z" fill="#03273a" stroke="#03273a"></path><path d="M177 0L160 83L284 124Z" fill="#05202f" stroke="#05202f"></path><path d="M76 330L199 387L224 334Z" fill="#051b29" stroke="#051b29"></path><path d="M224 334L199 387L287 428Z" fill="#022a3d" stroke="#022a3d"></path><path d="M79 227L224 334L191 186Z" fill="#041622" stroke="#041622"></path><path d="M311 0L177 0L284 124Z" fill="#00101c" stroke="#00101c"></path><path d="M781 67L710 0L686 118Z" fill="#02131f" stroke="#02131f"></path><path d="M686 118L710 0L627 74Z" fill="#00101c" stroke="#00101c"></path><path d="M714 470L725 381L618 412Z" fill="#051d2c" stroke="#051d2c"></path><path d="M618 412L725 381L594 306Z" fill="#051825" stroke="#051825"></path><path d="M823 308L838 209L721 191Z" fill="#051825" stroke="#051825"></path><path d="M468 482L579 503L527 401Z" fill="#022a3d" stroke="#022a3d"></path><path d="M198 471L320 513L287 428Z" fill="#041622" stroke="#041622"></path><path d="M287 428L320 513L392 414Z" fill="#041622" stroke="#041622"></path><path d="M468 482L530 600L579 503Z" fill="#042536" stroke="#042536"></path><path d="M320 513L368 534L392 414Z" fill="#051b29" stroke="#051b29"></path><path d="M177 0L102 81L160 83Z" fill="#051825" stroke="#051825"></path><path d="M160 83L102 81L191 186Z" fill="#051d2c" stroke="#051d2c"></path><path d="M721 191L781 67L686 118Z" fill="#042233" stroke="#042233"></path><path d="M838 209L781 67L721 191Z" fill="#042536" stroke="#042536"></path><path d="M102 81L79 227L191 186Z" fill="#051825" stroke="#051825"></path><path d="M199 387L198 471L287 428Z" fill="#042233" stroke="#042233"></path><path d="M274 600L375 600L368 534Z" fill="#00101c" stroke="#00101c"></path><path d="M91 478L198 471L199 387Z" fill="#00101c" stroke="#00101c"></path><path d="M579 503L714 470L618 412Z" fill="#042536" stroke="#042536"></path><path d="M823 308L721 191L699 280Z" fill="#051d2c" stroke="#051d2c"></path><path d="M79 227L76 330L224 334Z" fill="#022a3d" stroke="#022a3d"></path><path d="M823 308L699 280L725 381Z" fill="#051d2c" stroke="#051d2c"></path><path d="M795 376L823 308L725 381Z" fill="#022a3d" stroke="#022a3d"></path><path d="M714 470L795 376L725 381Z" fill="#02131f" stroke="#02131f"></path><path d="M900 0L799 0L781 67Z" fill="#05202f" stroke="#05202f"></path><path d="M781 67L799 0L710 0Z" fill="#051d2c" stroke="#051d2c"></path><path d="M177 0L81 0L102 81Z" fill="#03273a" stroke="#03273a"></path><path d="M0 111L0 235L79 227Z" fill="#05202f" stroke="#05202f"></path><path d="M0 367L64 372L76 330Z" fill="#00101c" stroke="#00101c"></path><path d="M274 600L368 534L320 513Z" fill="#051d2c" stroke="#051d2c"></path><path d="M368 534L375 600L468 482Z" fill="#041622" stroke="#041622"></path><path d="M579 503L688 600L714 470Z" fill="#051b29" stroke="#051b29"></path><path d="M375 600L530 600L468 482Z" fill="#051b29" stroke="#051b29"></path><path d="M0 266L76 330L79 227Z" fill="#02131f" stroke="#02131f"></path><path d="M76 330L64 372L199 387Z" fill="#00101c" stroke="#00101c"></path><path d="M198 471L274 600L320 513Z" fill="#051d2c" stroke="#051d2c"></path><path d="M167 600L274 600L198 471Z" fill="#022a3d" stroke="#022a3d"></path><path d="M530 600L612 600L579 503Z" fill="#041622" stroke="#041622"></path><path d="M833 522L900 413L795 376Z" fill="#03273a" stroke="#03273a"></path><path d="M0 111L79 227L102 81Z" fill="#051d2c" stroke="#051d2c"></path><path d="M0 235L0 266L79 227Z" fill="#042233" stroke="#042233"></path><path d="M0 0L0 111L102 81Z" fill="#051d2c" stroke="#051d2c"></path><path d="M64 372L91 478L199 387Z" fill="#041622" stroke="#041622"></path><path d="M0 367L91 478L64 372Z" fill="#051b29" stroke="#051b29"></path><path d="M900 261L900 218L838 209Z" fill="#051825" stroke="#051825"></path><path d="M838 209L900 126L781 67Z" fill="#03273a" stroke="#03273a"></path><path d="M900 261L838 209L823 308Z" fill="#051d2c" stroke="#051d2c"></path><path d="M900 218L900 126L838 209Z" fill="#05202f" stroke="#05202f"></path><path d="M900 413L900 261L823 308Z" fill="#042536" stroke="#042536"></path><path d="M900 413L823 308L795 376Z" fill="#042233" stroke="#042233"></path><path d="M0 266L0 367L76 330Z" fill="#05202f" stroke="#05202f"></path><path d="M612 600L688 600L579 503Z" fill="#00101c" stroke="#00101c"></path><path d="M81 0L0 0L102 81Z" fill="#042233" stroke="#042233"></path><path d="M132 600L198 471L91 478Z" fill="#051b29" stroke="#051b29"></path><path d="M132 600L167 600L198 471Z" fill="#022a3d" stroke="#022a3d"></path><path d="M900 126L900 0L781 67Z" fill="#041622" stroke="#041622"></path><path d="M833 522L795 376L714 470Z" fill="#041622" stroke="#041622"></path><path d="M688 600L833 522L714 470Z" fill="#02131f" stroke="#02131f"></path><path d="M0 509L132 600L91 478Z" fill="#051d2c" stroke="#051d2c"></path><path d="M0 367L0 509L91 478Z" fill="#05202f" stroke="#05202f"></path><path d="M900 600L900 489L833 522Z" fill="#042233" stroke="#042233"></path><path d="M833 522L900 489L900 413Z" fill="#05202f" stroke="#05202f"></path><path d="M688 600L830 600L833 522Z" fill="#042536" stroke="#042536"></path><path d="M0 509L0 600L132 600Z" fill="#042536" stroke="#042536"></path><path d="M830 600L900 600L833 522Z" fill="#00101c" stroke="#00101c"></path></g></svg>